<svg width="116" height="32" viewBox="0 0 116 32" fill="none" xmlns="http://www.w3.org/2000/svg">
<g clip-path="url(#clip0_5342_49617)">
<path d="M37.152 25C35.168 25 33.728 24.568 32.832 23.704C31.952 22.824 31.512 21.536 31.512 19.84V8.2H34.344V19.84C34.344 20.848 34.568 21.592 35.016 22.072C35.48 22.536 36.192 22.768 37.152 22.768H42.528V25H37.152ZM45.3308 8.2H48.1628V25H45.3308V8.2ZM56.0569 10.432H50.8489V8.2H64.0729V10.432H58.8889V25H56.0569V10.432ZM66.7292 8.2H68.2412C68.9932 8.2 69.6012 8.304 70.0652 8.512C70.5292 8.72 70.9372 9.048 71.2892 9.496C71.6412 9.944 72.0332 10.6 72.4652 11.464L74.5772 15.616L76.6892 11.464C77.1212 10.6 77.5132 9.944 77.8652 9.496C78.2172 9.048 78.6252 8.72 79.0892 8.512C79.5532 8.304 80.1612 8.2 80.9132 8.2H82.4252V25H79.8332V11.128C79.6252 11.144 79.4412 11.24 79.2812 11.416C79.1372 11.576 78.9612 11.856 78.7532 12.256L74.5772 20.032L70.4012 12.256C70.1772 11.84 69.9932 11.552 69.8492 11.392C69.7052 11.216 69.5292 11.12 69.3212 11.104V25H66.7292V8.2ZM92.6031 25.288C90.4911 25.288 88.8671 24.84 87.7311 23.944C86.6111 23.032 86.0511 21.768 86.0511 20.152V8.2H88.8831V20.152C88.8831 21.112 89.1951 21.84 89.8191 22.336C90.4591 22.832 91.3871 23.08 92.6031 23.08C93.8191 23.08 94.7391 22.832 95.3631 22.336C96.0031 21.84 96.3231 21.112 96.3231 20.152V8.2H99.1551V20.152C99.1551 21.768 98.5871 23.032 97.4511 23.944C96.3311 24.84 94.7151 25.288 92.6031 25.288ZM108.008 25.288C106.904 25.288 105.968 25.176 105.2 24.952C104.448 24.712 103.8 24.368 103.256 23.92C102.712 23.472 102.16 22.88 101.6 22.144L103.52 20.536C104.176 21.448 104.832 22.096 105.488 22.48C106.16 22.864 106.992 23.056 107.984 23.056C109.328 23.056 110.328 22.84 110.984 22.408C111.64 21.976 111.968 21.312 111.968 20.416C111.968 19.92 111.824 19.52 111.536 19.216C111.264 18.896 110.776 18.624 110.072 18.4C109.384 18.16 108.352 17.896 106.976 17.608C105.408 17.288 104.24 16.728 103.472 15.928C102.704 15.128 102.32 14.064 102.32 12.736C102.32 11.76 102.568 10.912 103.064 10.192C103.56 9.456 104.264 8.896 105.176 8.512C106.088 8.112 107.16 7.912 108.392 7.912C109.896 7.912 111.12 8.144 112.064 8.608C113.024 9.072 113.784 9.76 114.344 10.672L112.472 12.208C111.848 11.488 111.232 10.968 110.624 10.648C110.032 10.312 109.28 10.144 108.368 10.144C107.344 10.144 106.552 10.376 105.992 10.84C105.432 11.288 105.152 11.928 105.152 12.76C105.152 13.512 105.464 14.088 106.088 14.488C106.712 14.872 107.576 15.184 108.68 15.424C110.104 15.712 111.24 16.032 112.088 16.384C112.936 16.72 113.6 17.208 114.08 17.848C114.56 18.488 114.799 19.344 114.799 20.416C114.799 23.664 112.536 25.288 108.008 25.288Z" fill="white"/>
<path d="M9.62713 31.0115V20.9805L0.90625 25.996L9.62713 31.0115Z" fill="#AE00FF" stroke="white" stroke-width="1.5" stroke-linejoin="round"/>
<path d="M13.9933 18.4688L9.63281 20.9765V31.0075L22.7141 23.4843L13.9933 18.4688Z" fill="#EA3962" stroke="white" stroke-width="1.5" stroke-linejoin="round"/>
<path d="M9.62713 5.92952L0.90625 0.914062V25.9915L9.62713 20.976V5.92952Z" fill="#4542CC" stroke="white" stroke-width="1.5" stroke-linejoin="round"/>
</g>
<defs>
<clipPath id="clip0_5342_49617">
<rect width="116" height="32" fill="white"/>
</clipPath>
</defs>
</svg>
